<svg width="30" height="30" viewBox="0 0 30 30" fill="none" xmlns="http://www.w3.org/2000/svg">
<path fill-rule="evenodd" clip-rule="evenodd" d="M15 7.8C14.3373 7.8 13.8 8.33726 13.8 9V13.8H9.00005C8.33731 13.8 7.80005 14.3373 7.80005 15C7.80005 15.6627 8.33731 16.2 9.00005 16.2H13.8V21C13.8 21.6627 14.3373 22.2 15 22.2C15.6628 22.2 16.2 21.6627 16.2 21V16.2H21C21.6628 16.2 22.2 15.6627 22.2 15C22.2 14.3373 21.6628 13.8 21 13.8H16.2V9C16.2 8.33726 15.6628 7.8 15 7.8Z" fill="white" fill-opacity="0.3"/>
</svg>
