<svg width="24" height="24" viewBox="0 0 24 24" fill="none" xmlns="http://www.w3.org/2000/svg">
<path d="M9.30979 2.45096C10.4102 0.221219 13.5898 0.221221 14.6902 2.45096L16.0043 5.11354C16.4413 5.99897 17.286 6.61268 18.2631 6.75466L21.2014 7.18163C23.6621 7.53918 24.6446 10.5631 22.8641 12.2987L20.7379 14.3712C20.0308 15.0604 19.7082 16.0534 19.8751 17.0266L20.377 19.9531C20.7973 22.4038 18.225 24.2727 16.0241 23.1156L13.396 21.7339C12.522 21.2745 11.4779 21.2745 10.604 21.7339L7.97585 23.1156C5.77497 24.2727 3.20267 22.4038 3.623 19.9531L4.12493 17.0266C4.29185 16.0534 3.9692 15.0604 3.26214 14.3712L1.13594 12.2987C-0.644608 10.5631 0.337924 7.53918 2.79859 7.18163L5.73692 6.75466C6.71405 6.61268 7.55874 5.99897 7.99573 5.11354L9.30979 2.45096Z" fill="customColor"/>
</svg>
